<?xml version="1.0" encoding="UTF-8" standalone="no"?>
<!-- Created with Inkscape (http://www.inkscape.org/) -->

<svg
   xmlns:dc="http://purl.org/dc/elements/1.1/"
   xmlns:cc="http://creativecommons.org/ns#"
   xmlns:rdf="http://www.w3.org/1999/02/22-rdf-syntax-ns#"
   xmlns:svg="http://www.w3.org/2000/svg"
   xmlns="http://www.w3.org/2000/svg"
   xmlns:sodipodi="http://sodipodi.sourceforge.net/DTD/sodipodi-0.dtd"
   xmlns:inkscape="http://www.inkscape.org/namespaces/inkscape"
   width="744.09448819"
   height="1052.3622047"
   id="svg2"
   version="1.1"
   inkscape:version="0.48.2 r9819"
   sodipodi:docname="New document 1">
  <defs
     id="defs4" />
  <sodipodi:namedview
     id="base"
     pagecolor="#ffffff"
     bordercolor="#666666"
     borderopacity="1.0"
     inkscape:pageopacity="0.0"
     inkscape:pageshadow="2"
     inkscape:zoom="0.35"
     inkscape:cx="375"
     inkscape:cy="520"
     inkscape:document-units="px"
     inkscape:current-layer="layer1"
     showgrid="false"
     inkscape:window-width="938"
     inkscape:window-height="606"
     inkscape:window-x="326"
     inkscape:window-y="154"
     inkscape:window-maximized="0" />
  <metadata
     id="metadata7">
    <rdf:RDF>
      <cc:Work
         rdf:about="">
        <dc:format>image/svg+xml</dc:format>
        <dc:type
           rdf:resource="http://purl.org/dc/dcmitype/StillImage" />
        <dc:title></dc:title>
      </cc:Work>
    </rdf:RDF>
  </metadata>
  <g
     inkscape:label="Layer 1"
     inkscape:groupmode="layer"
     id="layer1">
    <path
       sodipodi:type="arc"
       style="fill:#00ffff;fill-opacity:1;stroke:#ff0000;stroke-opacity:1"
       id="path2985"
       sodipodi:cx="331.42856"
       sodipodi:cy="280.93362"
       sodipodi:rx="54.285713"
       sodipodi:ry="54.285713"
       d="m 385.71427,280.93362 a 54.285713,54.285713 0 1 1 -108.57142,0 54.285713,54.285713 0 1 1 108.57142,0 z" />
    <path
       sodipodi:type="arc"
       style="fill:#00ffff;fill-opacity:1;stroke:#ff0000;stroke-opacity:1"
       id="path2987"
       sodipodi:cx="402.85715"
       sodipodi:cy="318.07648"
       sodipodi:rx="71.428574"
       sodipodi:ry="71.428574"
       d="m 474.28572,318.07648 a 71.428574,71.428574 0 1 1 -142.85715,0 71.428574,71.428574 0 1 1 142.85715,0 z" />
    <path
       sodipodi:type="arc"
       style="fill:#00ffff;fill-opacity:1;stroke:#ff0000;stroke-opacity:1"
       id="path2989"
       sodipodi:cx="231.42857"
       sodipodi:cy="409.50504"
       sodipodi:rx="71.428574"
       sodipodi:ry="71.428574"
       d="m 302.85715,409.50504 a 71.428574,71.428574 0 1 1 -142.85715,0 71.428574,71.428574 0 1 1 142.85715,0 z" />
    <path
       sodipodi:type="arc"
       style="fill:#00ffff;fill-opacity:1;stroke:#ff0000;stroke-opacity:1"
       id="path2991"
       sodipodi:cx="335.98352"
       sodipodi:cy="393.79074"
       sodipodi:rx="104.01647"
       sodipodi:ry="64.285713"
       d="m 439.99999,393.79074 a 104.01647,64.285713 0 1 1 -208.03294,0 104.01647,64.285713 0 1 1 208.03294,0 z" />
    <path
       sodipodi:type="arc"
       style="fill:#00ffff;fill-opacity:1;stroke:#ff0000;stroke-opacity:1"
       id="path2993"
       sodipodi:cx="384.28571"
       sodipodi:cy="448.07648"
       sodipodi:rx="75.714287"
       sodipodi:ry="75.714287"
       d="m 459.99999,448.07648 a 75.714287,75.714287 0 1 1 -151.42857,0 75.714287,75.714287 0 1 1 151.42857,0 z" />
    <path
       sodipodi:type="arc"
       style="fill:#00ffff;fill-opacity:1;stroke:#ff0000;stroke-opacity:1"
       id="path2995"
       sodipodi:cx="307.14285"
       sodipodi:cy="559.50507"
       sodipodi:rx="41.42857"
       sodipodi:ry="124.28571"
       d="m 348.57142,559.50507 a 41.42857,124.28571 0 1 1 -82.85714,0 41.42857,124.28571 0 1 1 82.85714,0 z" />
    <path
       sodipodi:type="arc"
       style="fill:#00ffff;fill-opacity:1;stroke:#ff0000;stroke-opacity:1"
       id="path2997"
       sodipodi:cx="345.71429"
       sodipodi:cy="666.64789"
       sodipodi:rx="68.571426"
       sodipodi:ry="34.285713"
       d="m 414.28572,666.64789 a 68.571426,34.285713 0 1 1 -137.14285,0 68.571426,34.285713 0 1 1 137.14285,0 z" />
    <path
       sodipodi:type="arc"
       style="fill:#00ffff;fill-opacity:1;stroke:#ff0000;stroke-opacity:1"
       id="path2999"
       sodipodi:cx="432.85715"
       sodipodi:cy="678.07648"
       sodipodi:rx="30"
       sodipodi:ry="60"
       d="m 462.85715,678.07648 a 30,60 0 1 1 -60,0 30,60 0 1 1 60,0 z" />
  </g>
</svg>
